HIERARCHY
ROOT hip
{
  OFFSET 3.54765 80.8754 241.78
  CHANNELS 6 Xposition Yposition Zposition Zrotation Xrotation Yrotation
  JOINT abdomen
  {
    OFFSET 0 20.6881 -0.73152
    CHANNELS 3 Zrotation Xrotation Yrotation
    JOINT chest
    {
      OFFSET 0 11.7043 -0.48768
      CHANNELS 3 Zrotation Xrotation Yrotation
      JOINT neck
      {
        OFFSET 0 22.1894 -2.19456
        CHANNELS 3 Zrotation Xrotation Yrotation
        JOINT head
        {
          OFFSET -0.24384 7.07133 1.2192
          CHANNELS 3 Zrotation Xrotation Yrotation
          JOINT leftEye
          {
            OFFSET 4.14528 8.04674 8.04672
            CHANNELS 3 Zrotation Xrotation Yrotation
            End Site
            {
              OFFSET 1 0 0
            }
          }
          JOINT rightEye
          {
            OFFSET -3.6576 8.04674 8.04672
            CHANNELS 3 Zrotation Xrotation Yrotation
            End Site
            {
              OFFSET 1 0 0
            }
          }
        }
      }
      JOINT rCollar
      {
        OFFSET -2.68224 19.2634 -4.8768
        CHANNELS 3 Zrotation Xrotation Yrotation
        JOINT rShldr
        {
          OFFSET -8.77824 -1.95073 1.46304
          CHANNELS 3 Zrotation Xrotation Yrotation
          JOINT rForeArm
          {
            OFFSET -28.1742 -1.7115 0.48768
            CHANNELS 3 Zrotation Xrotation Yrotation
            JOINT rHand
            {
              OFFSET -22.5879 0.773209 7.07136
              CHANNELS 3 Zrotation Xrotation Yrotation
              JOINT rThumb1
              {
                OFFSET -1.2192 -0.487915 3.41376
                CHANNELS 3 Zrotation Xrotation Yrotation
                JOINT rThumb2
                {
                  OFFSET -3.37035 -0.52449 3.41376
                  CHANNELS 3 Zrotation Xrotation Yrotation
                  End Site
                  {
                    OFFSET -1.78271 -1.18214 1.43049
                  }
                }
              }
              JOINT rIndex1
              {
                OFFSET -7.75947 0.938293 5.60832
                CHANNELS 3 Zrotation Xrotation Yrotation
                JOINT rIndex2
                {
                  OFFSET -2.54057 -0.884171 1.56538
                  CHANNELS 3 Zrotation Xrotation Yrotation
                  End Site
                  {
                    OFFSET -1.62519 -0.234802 1.16502
                  }
                }
              }
              JOINT rMid1
              {
                OFFSET -8.24714 1.18213 3.41376
                CHANNELS 3 Zrotation Xrotation Yrotation
                JOINT rMid2
                {
                  OFFSET -3.10165 -0.590103 1.0647
                  CHANNELS 3 Zrotation Xrotation Yrotation
                  End Site
                  {
                    OFFSET -2.48547 -0.328903 0.83742
                  }
                }
              }
              JOINT rRing1
              {
                OFFSET -8.82822 0.546677 1.51678
                CHANNELS 3 Zrotation Xrotation Yrotation
                JOINT rRing2
                {
                  OFFSET -2.60934 -0.819778 -0.0198488
                  CHANNELS 3 Zrotation Xrotation Yrotation
                  End Site
                  {
                    OFFSET -2.33842 -0.294052 0.168128
                  }
                }
              }
              JOINT rPinky1
              {
                OFFSET -8.27202 -0.0477905 -0.4584
                CHANNELS 3 Zrotation Xrotation Yrotation
                JOINT rPinky2
                {
                  OFFSET -1.82734 -0.647385 -0.700984
                  CHANNELS 3 Zrotation Xrotation Yrotation
                  End Site
                  {
                    OFFSET -1.69225 -0.51767 -0.607171
                  }
                }
              }
            }
          }
        }
      }
      JOINT lCollar
      {
        OFFSET 2.68224 19.2634 -4.8768
        CHANNELS 3 Zrotation Xrotation Yrotation
        JOINT lShldr
        {
          OFFSET 8.77824 -1.95073 1.46304
          CHANNELS 3 Zrotation Xrotation Yrotation
          JOINT lForeArm
          {
            OFFSET 28.1742 -1.7115 0.48768
            CHANNELS 3 Zrotation Xrotation Yrotation
            JOINT lHand
            {
              OFFSET 22.5879 0.773209 7.07136
              CHANNELS 3 Zrotation Xrotation Yrotation
              JOINT lThumb1
              {
                OFFSET 1.2192 -0.487915 3.41376
                CHANNELS 3 Zrotation Xrotation Yrotation
                JOINT lThumb2
                {
                  OFFSET 3.37035 -0.52449 3.41376
                  CHANNELS 3 Zrotation Xrotation Yrotation
                  End Site
                  {
                    OFFSET 1.78271 -1.18214 1.43049
                  }
                }
              }
              JOINT lIndex1
              {
                OFFSET 7.75947 0.938293 5.60832
                CHANNELS 3 Zrotation Xrotation Yrotation
                JOINT lIndex2
                {
                  OFFSET 2.54057 -0.884171 1.56538
                  CHANNELS 3 Zrotation Xrotation Yrotation
                  End Site
                  {
                    OFFSET 1.62519 -0.234802 1.16502
                  }
                }
              }
              JOINT lMid1
              {
                OFFSET 8.24714 1.18213 3.41376
                CHANNELS 3 Zrotation Xrotation Yrotation
                JOINT lMid2
                {
                  OFFSET 3.10165 -0.590103 1.0647
                  CHANNELS 3 Zrotation Xrotation Yrotation
                  End Site
                  {
                    OFFSET 2.48547 -0.328903 0.83742
                  }
                }
              }
              JOINT lRing1
              {
                OFFSET 8.82822 0.546677 1.51678
                CHANNELS 3 Zrotation Xrotation Yrotation
                JOINT lRing2
                {
                  OFFSET 2.60934 -0.819778 -0.0198488
                  CHANNELS 3 Zrotation Xrotation Yrotation
                  End Site
                  {
                    OFFSET 2.33842 -0.294052 0.168128
                  }
                }
              }
              JOINT lPinky1
              {
                OFFSET 8.27202 -0.0477905 -0.4584
                CHANNELS 3 Zrotation Xrotation Yrotation
                JOINT lPinky2
                {
                  OFFSET 1.82734 -0.647385 -0.700984
                  CHANNELS 3 Zrotation Xrotation Yrotation
                  End Site
                  {
                    OFFSET 1.69225 -0.51767 -0.607171
                  }
                }
              }
            }
          }
        }
      }
    }
  }
  JOINT rButtock
  {
    OFFSET -8.77824 4.35084 1.2192
    CHANNELS 3 Zrotation Xrotation Yrotation
    JOINT rThigh
    {
      OFFSET 0 -1.70687 -2.19456
      CHANNELS 3 Zrotation Xrotation Yrotation
      JOINT rShin
      {
        OFFSET 0 -36.8199 0.73152
        CHANNELS 3 Zrotation Xrotation Yrotation
        JOINT rFoot
        {
          OFFSET 0.73152 -45.1104 -5.12064
          CHANNELS 3 Zrotation Xrotation Yrotation
          End Site
          {
            OFFSET -1.1221 -3.69964 12.103
          }
        }
      }
    }
  }
  JOINT lButtock
  {
    OFFSET 8.77824 4.35084 1.2192
    CHANNELS 3 Zrotation Xrotation Yrotation
    JOINT lThigh
    {
      OFFSET 0 -1.70687 -2.19456
      CHANNELS 3 Zrotation Xrotation Yrotation
      JOINT lShin
      {
        OFFSET 0 -36.8199 0.73152
        CHANNELS 3 Zrotation Xrotation Yrotation
        JOINT lFoot
        {
          OFFSET -0.73152 -45.1104 -5.12064
          CHANNELS 3 Zrotation Xrotation Yrotation
          End Site
          {
            OFFSET 1.1221 -3.69964 12.103
          }
        }
      }
    }
  }
}
MOTION
Frames:	4
Frame Time:	0.00833333
-4.48452 84.6734 -265.802 0.405495 -0.000977307 -0.00692152 -0.533514 -0.00266527 -0.0152481 -0.147218 -0.0041104 -0.0255072 -3.63425e-015 -1.59028e-015 -1.553e-016 -1.1135e-014 3.18055e-015 -4.25523e-016 -0 0 0 -0 0 0 -1.88985e-015 -3.88251e-019 9.93923e-017 -3.58231e-014 1.42876e-016 -7.95139e-016 -6.63245e-013 1.97592e-013 -2.22639e-014 -7.56768e-012 -2.07606e-013 -3.02153e-013 -1.78556e-011 -2.63813e-014 -6.77458e-013 -3.08442e-011 -4.77083e-014 -1.19032e-012 -1.78469e-011 -2.46493e-014 -6.83819e-013 7.73091 5.47488 0.417314 -1.78556e-011 -2.64384e-014 -6.83819e-013 2.90554 0.965183 0.102902 -1.78445e-011 -2.6339e-014 -6.86205e-013 10.2786 0.731801 0.0259123 -1.78552e-011 -2.38542e-014 -6.9018e-013 2.22167 -0.733487 -0.20892 -1.88718e-015 -1.55301e-018 -1.98785e-016 -4.05365e-014 -5.59082e-017 -2.38542e-015 -6.56934e-013 -2.02959e-013 -3.49861e-014 -7.57965e-012 1.8241e-013 -2.79889e-013 -1.78654e-011 -4.62315e-014 -7.02903e-013 -3.08387e-011 -8.5875e-014 -1.19191e-012 -1.78739e-011 -4.41302e-014 -6.93361e-013 -7.73091 5.47488 -0.417314 -1.78654e-011 -4.64162e-014 -6.96541e-013 -2.90554 0.965183 -0.102902 -1.78738e-011 -4.62174e-014 -6.91771e-013 -10.2786 0.731801 -0.0259123 -1.78642e-011 -4.37326e-014 -6.9018e-013 -2.22167 -0.733487 0.20892 -2.03217e-016 0 -3.88251e-019 0.0945713 -2.38716 -0.0232793 -0.00799154 -1.22789 -0.0686802 -0.498375 3.61504 0.130484 2.03217e-016 0 3.88251e-019 -0.906457 -4.44109 0.0752753 0.00224314 2.49246 0.0119047 0.505252 1.94872 -0.0973692 
-4.99385 80.8498 -270.394 -0.399353 4.68916 0.167704 1.65639 -5.37413 -0.0845338 0.437304 1.36885 -0.132778 0.335769 3.08055 -0.217272 -1.64197 -5.94441 -0.774461 -0 0 0 -0 0 0 3.22369e-017 5.7438e-014 -1.65962e-014 22.0827 -7.10939 -2.46973 -1.86965 -0.632626 3.11377 0.166912 9.22064 1.23873 2.47223e-010 3.19952e-011 -3.69131e-010 4.16774e-010 5.50616e-011 -6.42952e-010 2.4723e-010 3.19964e-011 -3.69139e-010 7.73091 5.47488 0.417314 2.47223e-010 3.19948e-011 -3.69138e-010 2.90554 0.965183 0.102902 2.47234e-010 3.1995e-011 -3.69138e-010 10.2786 0.731801 0.0259123 2.47222e-010 3.19974e-011 -3.69139e-010 2.22167 -0.733487 -0.20892 -4.05041e-019 5.74392e-014 -1.68819e-014 -22.4061 5.85104 -0.13508 5.60506 -2.89714 -8.34612 -0.0029148 -1.25494 0.176235 7.07937e-011 4.0563e-010 1.08256e-010 1.22577e-010 7.01401e-010 1.87298e-010 7.0785e-011 4.05631e-010 1.08265e-010 -7.73091 5.47488 -0.417314 7.07935e-011 4.05628e-010 1.08262e-010 -2.90554 0.965183 -0.102902 7.07847e-011 4.05628e-010 1.08266e-010 -10.2786 0.731801 -0.0259123 7.07931e-011 4.0563e-010 1.08266e-010 -2.22167 -0.733487 0.20892 -2.03217e-016 0 -3.88251e-019 1.61936 -14.3933 0.0364667 -0.0640636 10.5756 0.0137974 -0.332234 -1.37896 1.12189 2.03217e-016 0 3.88251e-019 0.102718 -14.7912 0.83677 0.0368498 22.3435 -0.254153 0.380041 4.41004 -1.36123 
-5.00989 81.0952 -268.949 -1.28746 9.64337 0.372857 3.97004 -11.0488 -0.178773 1.05822 2.82646 -0.251806 0.71547 6.33536 -0.449382 -3.55101 -12.2428 -1.62207 -0 0 0 -0 0 0 1.23773e-015 1.19641e-013 -3.53526e-014 44.7045 -14.8171 -5.30688 -3.75124 -1.28565 6.37346 -0.118443 19.1392 2.68732 5.39052e-010 5.94415e-011 -7.50367e-010 9.09925e-010 1.02074e-010 -1.30733e-009 5.39057e-010 5.94422e-011 -7.50377e-010 7.73091 5.47488 0.417314 5.39051e-010 5.94406e-011 -7.50374e-010 2.90554 0.965183 0.102902 5.39062e-010 5.9441e-011 -7.50372e-010 10.2786 0.731801 0.0259123 5.3905e-010 5.94433e-011 -7.50369e-010 2.22167 -0.733487 -0.20892 1.16638e-015 1.19645e-013 -3.56259e-014 -46.0455 12.0463 -0.314728 10.6708 -5.79406 -17.3134 0.0026596 -2.62478 0.368908 1.69829e-010 8.4684e-010 2.13006e-010 2.93898e-010 1.46432e-009 3.68501e-010 1.6982e-010 8.46839e-010 2.13016e-010 -7.73091 5.47488 -0.417314 1.69828e-010 8.46835e-010 2.13013e-010 -2.90554 0.965183 -0.102902 1.69819e-010 8.46836e-010 2.13016e-010 -10.2786 0.731801 -0.0259123 1.69826e-010 8.46838e-010 2.13015e-010 -2.22167 -0.733487 0.20892 -2.03217e-016 0 -3.88251e-019 3.26394 -27.1439 0.10045 -0.164078 23.0771 0.107344 0.0323264 -6.62104 2.18363 2.03217e-016 0 3.88251e-019 1.5028 -25.6383 1.72747 0.34258 43.3396 -0.682345 0.36763 7.05956 -2.73732 
-4.99907 81.1945 -267.988 -2.09705 14.0689 0.531206 5.9958 -16.1169 -0.231072 1.62181 4.11472 -0.348103 1.07818 9.2411 -0.659432 -5.42854 -17.8199 -2.42741 -0 0 0 -0 0 0 3.8764e-015 1.72315e-013 -4.99874e-014 64.3023 -21.1638 -7.88722 -5.40358 -1.87547 9.3458 -0.824914 27.6068 4.14023 7.7738e-010 9.60383e-011 -1.10604e-009 1.31201e-009 1.6528e-010 -1.92648e-009 7.77385e-010 9.60386e-011 -1.10605e-009 7.73091 5.47488 0.417314 7.77379e-010 9.60371e-011 -1.10605e-009 2.90554 0.965183 0.102902 7.7739e-010 9.60377e-011 -1.10604e-009 10.2786 0.731801 0.0259123 7.77377e-010 9.60398e-011 -1.10604e-009 2.22167 -0.733487 -0.20892 3.77315e-015 1.72321e-013 -5.02483e-014 -67.1321 17.5527 -0.422816 14.3524 -7.95526 -25.2661 0.0144581 -3.76467 0.529721 2.48112e-010 1.21698e-009 3.26173e-010 4.29407e-010 2.10437e-009 5.64277e-010 2.48103e-010 1.21698e-009 3.26183e-010 -7.73091 5.47488 -0.417314 2.48111e-010 1.21698e-009 3.2618e-010 -2.90554 0.965183 -0.102902 2.48102e-010 1.21698e-009 3.26182e-010 -10.2786 0.731801 -0.0259123 2.48108e-010 1.21698e-009 3.26179e-010 -2.22167 -0.733487 0.20892 -2.03217e-016 0 -3.88251e-019 4.7607 -38.4053 0.194586 -0.292456 34.1825 0.215192 0.526365 -11.3509 3.16623 2.03217e-016 0 3.88251e-019 3.11488 -35.4635 2.79603 1.18859 62.0375 -1.55487 0.459069 9.31484 -3.92887 
